<svg width="52" height="52" viewBox="0 0 52 52" fill="none" xmlns="http://www.w3.org/2000/svg">
<path d="M26 51C29.9547 51 33.1945 47.9392 33.4795 44.0575C36.426 46.6007 40.8812 46.474 43.6777 43.6777C46.474 40.8812 46.6005 36.4262 44.0572 33.4795C47.9392 33.1945 51 29.9547 51 26C51 22.0452 47.9392 18.8056 44.0575 18.5204C46.6007 15.5739 46.474 11.1187 43.6777 8.32235C40.8812 5.52595 36.4262 5.3994 33.4795 7.9427C33.1945 4.06082 29.9547 1 26 1C22.0452 1 18.8056 4.06077 18.5204 7.9426C15.5739 5.39935 11.1187 5.5259 8.32235 8.32227C5.52595 11.1187 5.39942 15.5739 7.9427 18.5204C4.06082 18.8055 1 22.0452 1 26C1 29.9547 4.06075 33.1945 7.94257 33.4795C5.39935 36.426 5.52592 40.8812 8.32227 43.6777C11.1187 46.474 15.5739 46.6005 18.5204 44.0572C18.8055 47.9392 22.0452 51 26 51Z" fill="#FF6F61" stroke="black" stroke-linecap="square"/>
</svg>
