<svg width="51" height="50" viewBox="0 0 51 50" fill="none" xmlns="http://www.w3.org/2000/svg">
<path d="M20.8087 3.53391C22.2115 -1.1111 28.7885 -1.1111 30.1913 3.53391V3.53391C31.0872 6.50061 34.4781 7.90085 37.2066 6.4315V6.4315C41.4639 4.13895 46.0498 8.87348 43.8054 13.1563V13.1563C42.3654 15.904 43.7441 19.3346 46.7068 20.254V20.254C51.3681 21.7006 51.3681 28.2994 46.7069 29.746V29.746C43.7441 30.6654 42.3654 34.096 43.8054 36.8437V36.8437C46.0498 41.1265 41.4639 45.861 37.2066 43.5685V43.5685C34.4781 42.0991 31.0872 43.4994 30.1913 46.4661V46.4661C28.7885 51.1111 22.2115 51.1111 20.8087 46.4661V46.4661C19.9128 43.4994 16.5219 42.0991 13.7934 43.5685V43.5685C9.53614 45.861 4.95022 41.1265 7.19462 36.8437V36.8437C8.63458 34.096 7.25594 30.6654 4.29315 29.746V29.746C-0.36807 28.2994 -0.368069 21.7006 4.29315 20.254V20.254C7.25594 19.3346 8.63458 15.904 7.19462 13.1563V13.1563C4.95022 8.87348 9.53614 4.13895 13.7934 6.4315V6.4315C16.5219 7.90085 19.9128 6.50061 20.8087 3.53391V3.53391Z" fill="white"/>
</svg>
