<svg width="50" height="50" viewBox="0 0 50 50" fill="none" xmlns="http://www.w3.org/2000/svg">
<path d="M47.1497 26.7022L47.1467 26.7005C46.6513 26.4282 45.5896 25.9932 44.149 25.4735L42.8455 25.0031L44.149 24.5328C45.5903 24.0128 46.6485 23.581 47.1436 23.3089L47.1468 23.3071C48.5424 22.5531 49.3567 21.0495 49.4817 19.135C49.6067 17.2197 49.0321 14.9399 47.6934 12.7673L47.1497 26.7022ZM47.1497 26.7022C48.5439 27.4561 49.3583 28.9591 49.4833 30.8733C49.6083 32.7882 49.0336 35.0681 47.6932 37.2423L47.6931 37.2425C46.3564 39.4126 44.5314 41.0261 42.6811 41.8893C40.8254 42.755 39.0016 42.8451 37.5967 42.086L37.5958 42.0855C37.0933 41.8154 36.1583 41.1748 34.9555 40.2595L33.9476 39.4926L34.1598 40.7412C34.4033 42.174 34.5246 43.2468 34.5246 43.7852C34.5246 45.2655 33.5551 46.6826 31.824 47.7553C30.1005 48.8234 27.6886 49.5 24.9992 49.5C22.305 49.5 19.8915 48.8233 18.1678 47.7553C16.4365 46.6826 15.4676 45.2656 15.4676 43.7852C15.4676 43.2482 15.5946 42.1833 15.8386 40.7541L16.0505 39.5125L15.0448 40.2706C13.8372 41.1808 12.9087 41.8183 12.4058 42.0886L12.4046 42.0893C11.0016 42.848 9.17801 42.7574 7.32132 41.8909C5.4702 41.0269 3.64364 39.4127 2.30532 37.2425C0.966342 35.0682 0.391693 32.7889 0.516721 30.8748C0.641691 28.9616 1.4559 27.4594 2.85165 26.7054L2.85373 26.7042C3.35291 26.4315 4.41536 25.9963 5.86497 25.4735L7.17312 25.0017L5.86407 24.5325C4.41586 24.0133 3.35964 23.5781 2.85775 23.3025L2.85513 23.3011C1.46253 22.5472 0.648733 21.0435 0.523357 19.129C0.397942 17.2139 0.971203 14.9347 2.30842 12.7638L2.3085 12.7637C3.64522 10.592 5.47176 8.97705 7.32367 8.11267C9.18061 7.24594 11.0055 7.15509 12.41 7.91342C12.9121 8.18794 13.8419 8.82656 15.0443 9.73524L16.0509 10.496L15.8386 9.2522C15.5946 7.82317 15.4676 6.75195 15.4676 6.21797C15.4676 4.73623 16.4385 3.31836 18.1712 2.24515C19.8963 1.17666 22.3099 0.5 24.9992 0.5C27.6886 0.5 30.1005 1.17665 31.8239 2.24505C33.5549 3.3181 34.5246 4.73593 34.5246 6.21797C34.5246 6.7532 34.4033 7.82918 34.1598 9.25863L33.9481 10.5018M47.1497 26.7022L33.9481 10.5018M33.9481 10.5018L34.9542 9.74148M33.9481 10.5018L34.9542 9.74148M34.9542 9.74148C36.1553 8.83375 37.0888 8.1945 37.5951 7.9163M34.9542 9.74148L37.5951 7.9163M37.5951 7.9163C38.9979 7.15986 40.8202 7.25144 42.6758 8.11809C44.5266 8.98246 46.3533 10.5967 47.6932 12.767L37.5951 7.9163ZM35.0277 25.0034V25.0031C35.0277 19.4708 30.5343 14.9856 24.9992 14.9856C19.4576 14.9856 14.9707 19.471 14.9707 25.0031C14.9707 30.5353 19.4576 35.0207 24.9992 35.0207C30.5314 35.0207 35.0244 30.5354 35.0277 25.0034Z" fill="#FF6F61" stroke="black"/>
<ellipse cx="24.5" cy="24" rx="13.5" ry="13" fill="#FF6F61"/>
</svg>
