<svg width="119" height="14" viewBox="0 0 119 14" fill="none" xmlns="http://www.w3.org/2000/svg">
<path d="M9.98234 3.36C9.87568 3.62667 9.78234 3.83333 9.70234 3.98C9.62234 4.11333 9.52901 4.24667 9.42234 4.38C9.31568 4.5 9.16901 4.65333 8.98234 4.84C8.80901 5.01333 8.56234 5.26667 8.24234 5.6C7.97568 5.88 7.75568 6.11333 7.58234 6.3C7.42234 6.47333 7.26234 6.63333 7.10234 6.78C6.95568 6.92667 6.79568 7.08667 6.62234 7.26C6.44901 7.42 6.22901 7.62667 5.96234 7.88C5.96234 8.06667 5.95568 8.29333 5.94234 8.56C5.92901 8.82667 5.92234 9.13333 5.92234 9.48C5.92234 9.6 5.92901 9.74667 5.94234 9.92C5.95568 10.08 5.96901 10.24 5.98234 10.4C6.00901 10.56 6.02901 10.7133 6.04234 10.86C6.05568 10.9933 6.06234 11.1 6.06234 11.18V11.74C6.06234 12.2333 6.08901 12.6333 6.14234 12.94C6.03568 13.34 5.72234 13.54 5.20234 13.54C4.97568 13.54 4.79568 13.4733 4.66234 13.34C4.54234 13.2067 4.44901 13.0333 4.38234 12.82C4.31568 12.5933 4.26901 12.34 4.24234 12.06C4.22901 11.7667 4.22234 11.46 4.22234 11.14C4.22234 11.0333 4.22234 10.94 4.22234 10.86C4.23568 10.78 4.24901 10.7067 4.26234 10.64C4.23568 10.0667 4.20901 9.58667 4.18234 9.2C4.16901 8.81333 4.16234 8.52 4.16234 8.32V8.1C3.96234 7.88667 3.70901 7.60667 3.40234 7.26C3.09568 6.91333 2.73568 6.50667 2.32234 6.04C2.25568 5.90667 2.14901 5.74 2.00234 5.54C1.85568 5.34 1.70234 5.14667 1.54234 4.96C1.39568 4.76 1.26234 4.58 1.14234 4.42C1.03568 4.24667 0.982344 4.12 0.982344 4.04C0.982344 3.81333 1.07568 3.59333 1.26234 3.38C1.46234 3.16667 1.69568 3.06 1.96234 3.06C2.08234 3.06 2.17568 3.08 2.24234 3.12C2.32234 3.14667 2.39568 3.2 2.46234 3.28C2.54234 3.34667 2.62234 3.44667 2.70234 3.58C2.79568 3.7 2.91568 3.85333 3.06234 4.04C3.20901 4.22667 3.32901 4.39333 3.42234 4.54C3.52901 4.68667 3.61568 4.81333 3.68234 4.92C3.72234 4.96 3.80234 5.04667 3.92234 5.18C4.05568 5.31333 4.19568 5.46 4.34234 5.62C4.48901 5.76667 4.62234 5.90667 4.74234 6.04C4.87568 6.17333 4.96901 6.26 5.02234 6.3C5.16901 6.16667 5.35568 6.00667 5.58234 5.82C5.80901 5.63333 6.07568 5.41333 6.38234 5.16C6.43568 5.05333 6.56901 4.84667 6.78234 4.54C6.99568 4.23333 7.23568 3.91333 7.50234 3.58C7.78234 3.23333 8.05568 2.92 8.32234 2.64C8.58901 2.34667 8.80234 2.16 8.96234 2.08C9.05568 2.12 9.16234 2.18667 9.28234 2.28C9.40234 2.36 9.51568 2.46 9.62234 2.58C9.72901 2.68667 9.81568 2.8 9.88234 2.92C9.94901 3.04 9.98234 3.15333 9.98234 3.26V3.36ZM16.6675 12.5C16.4942 12.62 16.2142 12.74 15.8275 12.86C15.4408 12.9667 15.0408 13.06 14.6275 13.14L13.8075 12.98C13.6875 12.94 13.4875 12.8467 13.2075 12.7C12.9408 12.5533 12.6675 12.3333 12.3875 12.04C12.1075 11.7333 11.8608 11.3467 11.6475 10.88C11.4342 10.4 11.3275 9.82 11.3275 9.14C11.3275 8.9 11.3808 8.62 11.4875 8.3C11.6075 7.96667 11.7808 7.66 12.0075 7.38C12.2342 7.08667 12.5142 6.84 12.8475 6.64C13.1942 6.44 13.5942 6.34 14.0475 6.34C14.9542 6.34 15.7742 6.63333 16.5075 7.22C17.1475 8.1 17.4675 9.07333 17.4675 10.14C17.4675 10.9267 17.2008 11.7133 16.6675 12.5ZM15.6875 9.66C15.6208 9.14 15.4542 8.73333 15.1875 8.44C14.9342 8.13333 14.6075 7.98 14.2075 7.98C13.9408 7.98 13.6875 8.11333 13.4475 8.38C13.2208 8.63333 13.1075 9.00667 13.1075 9.5C13.1075 9.7 13.1342 9.91333 13.1875 10.14C13.2408 10.3533 13.3275 10.5533 13.4475 10.74C13.5675 10.9133 13.7208 11.06 13.9075 11.18C14.0942 11.2867 14.3208 11.34 14.5875 11.34C15.0142 11.34 15.3075 11.2133 15.4675 10.96C15.6275 10.6933 15.7075 10.3667 15.7075 9.98C15.7075 9.92667 15.7008 9.88 15.6875 9.84C15.6875 9.78667 15.6875 9.72667 15.6875 9.66ZM26.805 5.82C26.8317 5.98 26.845 6.14 26.845 6.3C26.845 6.46 26.845 6.61333 26.845 6.76C26.845 7.37333 26.7783 7.92667 26.645 8.42C26.5917 8.75333 26.5517 9.1 26.525 9.46C26.4983 9.80667 26.4717 10.1733 26.445 10.56C26.445 10.5867 26.4583 10.7333 26.485 11C26.525 11.2533 26.545 11.6333 26.545 12.14C26.545 12.3667 26.4517 12.54 26.265 12.66C26.0917 12.7667 25.885 12.82 25.645 12.82C25.3517 12.82 25.145 12.76 25.025 12.64C24.905 12.5067 24.8317 12.2 24.805 11.72C24.5783 11.9333 24.3583 12.1 24.145 12.22C23.9317 12.3267 23.725 12.4067 23.525 12.46C23.3383 12.5133 23.1583 12.5467 22.985 12.56C22.825 12.5733 22.6717 12.58 22.525 12.58C21.765 12.58 21.1917 12.3533 20.805 11.9C20.4183 11.4467 20.225 10.82 20.225 10.02C20.225 9.92667 20.225 9.83333 20.225 9.74C20.225 9.63333 20.2317 9.51333 20.245 9.38C20.2317 9.35333 20.225 9.29333 20.225 9.2C20.225 9.05333 20.225 8.90667 20.225 8.76C20.2383 8.6 20.265 8.40667 20.305 8.18C20.345 7.95333 20.405 7.67333 20.485 7.34C20.5783 6.99333 20.705 6.55333 20.865 6.02C21.0383 5.80667 21.2717 5.7 21.565 5.7C21.7917 5.7 21.985 5.76 22.145 5.88C22.3183 6 22.405 6.18667 22.405 6.44C22.405 6.50667 22.385 6.64 22.345 6.84C22.305 7.04 22.2583 7.26 22.205 7.5C22.1517 7.74 22.105 7.98 22.065 8.22C22.025 8.46 22.005 8.64667 22.005 8.78V8.88C21.9783 9.02667 21.9583 9.17333 21.945 9.32C21.9317 9.45333 21.925 9.58 21.925 9.7C21.925 10.0467 21.9717 10.3333 22.065 10.56C22.1717 10.7867 22.3917 10.9 22.725 10.9C22.965 10.9 23.1917 10.8467 23.405 10.74C23.6183 10.62 23.8117 10.48 23.985 10.32C24.1717 10.1467 24.3317 9.96667 24.465 9.78C24.5983 9.58 24.6983 9.39333 24.765 9.22C24.8317 8.72667 24.9517 8.08 25.125 7.28V7.08C25.125 6.85333 25.1317 6.63333 25.145 6.42C25.1717 6.20667 25.2117 6.02 25.265 5.86C25.3317 5.68667 25.425 5.55333 25.545 5.46C25.665 5.35333 25.8317 5.3 26.045 5.3C26.445 5.3 26.6983 5.47333 26.805 5.82ZM36.2902 10.78V10.94C36.2902 11.02 36.2902 11.1667 36.2902 11.38C36.3035 11.58 36.2835 11.7867 36.2302 12C36.1902 12.2133 36.1035 12.4067 35.9702 12.58C35.8368 12.74 35.6368 12.82 35.3702 12.82C34.8502 12.82 34.5435 12.6133 34.4502 12.2C34.4635 12.12 34.4702 12.0333 34.4702 11.94C34.4702 11.8333 34.4702 11.72 34.4702 11.6C34.4702 11.5467 34.4702 11.3533 34.4702 11.02C34.4702 10.6733 34.4568 10.3 34.4302 9.9C34.4168 9.5 34.3768 9.12667 34.3102 8.78C34.2435 8.42 34.1435 8.19333 34.0102 8.1C33.7035 7.88667 33.4302 7.78 33.1902 7.78C32.8702 7.78 32.5968 7.88 32.3702 8.08C32.1568 8.26667 31.9768 8.64 31.8302 9.2C31.8168 9.38667 31.8035 9.6 31.7902 9.84C31.7768 10.0667 31.7568 10.3267 31.7302 10.62C31.7302 10.8467 31.7368 11.1 31.7502 11.38C31.7635 11.6467 31.7835 11.9533 31.8102 12.3C31.8102 12.5533 31.7102 12.7667 31.5102 12.94C31.3102 13.1 31.0835 13.18 30.8302 13.18C30.6302 13.18 30.4702 13.1267 30.3502 13.02C30.2302 12.9133 30.1368 12.7733 30.0702 12.6C30.0168 12.4267 29.9768 12.24 29.9502 12.04C29.9368 11.84 29.9302 11.64 29.9302 11.44C29.9302 11.2933 29.9368 11.1467 29.9502 11C29.9635 10.84 29.9835 10.68 30.0102 10.52L30.1702 8.6L30.3302 7.64C30.3035 7.48 30.2502 7.30667 30.1702 7.12C30.0902 6.93333 30.0502 6.78667 30.0502 6.68C30.0502 6.45333 30.1368 6.24667 30.3102 6.06C30.4968 5.87333 30.7235 5.78 30.9902 5.78C31.1768 5.78 31.3168 5.82 31.4102 5.9C31.5035 5.96667 31.6568 6.14 31.8702 6.42C32.1368 6.3 32.3502 6.22667 32.5102 6.2C32.6702 6.16 32.8568 6.14 33.0702 6.14C33.7635 6.14 34.3702 6.30667 34.8902 6.64C35.4235 6.96 35.7568 7.5 35.8902 8.26C35.9302 8.54 35.9635 8.77333 35.9902 8.96C36.0302 9.14667 36.0635 9.32667 36.0902 9.5C36.1168 9.67333 36.1435 9.86 36.1702 10.06C36.1968 10.2467 36.2368 10.4867 36.2902 10.78ZM42.6428 12.4C42.6428 12.52 42.6028 12.64 42.5228 12.76C42.4561 12.88 42.3628 12.98 42.2428 13.06C42.1361 13.1533 42.0095 13.2267 41.8628 13.28C41.7295 13.3467 41.6028 13.38 41.4828 13.38C41.1628 13.38 40.9028 13.3333 40.7028 13.24C40.5028 13.16 40.3495 13.0533 40.2428 12.92C40.1495 12.7867 40.0828 12.6467 40.0428 12.5C40.0161 12.34 40.0028 12.1933 40.0028 12.06C40.0028 11.9 40.0295 11.74 40.0828 11.58C40.1495 11.4067 40.2361 11.2533 40.3428 11.12C40.4495 10.9867 40.5761 10.88 40.7228 10.8C40.8695 10.7067 41.0361 10.66 41.2228 10.66C41.3428 10.66 41.4828 10.6733 41.6428 10.7C41.8161 10.7267 41.9761 10.8 42.1228 10.92C42.2695 11.04 42.3895 11.22 42.4828 11.46C42.5895 11.6867 42.6428 12 42.6428 12.4ZM54.7983 11.56C54.7983 11.7867 54.6916 11.9933 54.4783 12.18C54.2649 12.3533 54.0449 12.44 53.8183 12.44C53.7516 12.44 53.7049 12.4467 53.6783 12.46C53.6516 12.46 53.6049 12.44 53.5383 12.4C53.4849 12.3467 53.3916 12.2533 53.2583 12.12C53.1249 11.9867 52.9183 11.78 52.6383 11.5C52.3583 11.2067 52.1183 10.9467 51.9183 10.72C51.7316 10.4933 51.5849 10.3 51.4783 10.14C51.1583 9.96667 50.8983 9.79333 50.6983 9.62C50.4983 9.44667 50.3116 9.28 50.1383 9.12C49.9649 8.94667 49.7783 8.77333 49.5783 8.6C49.3783 8.41333 49.1116 8.22 48.7783 8.02C48.6183 8.11333 48.5183 8.18 48.4783 8.22C48.4783 9.00667 48.4183 9.66667 48.2983 10.2C48.2983 10.3067 48.2983 10.4533 48.2983 10.64C48.3116 10.8133 48.3249 11 48.3383 11.2C48.3516 11.3867 48.3583 11.5667 48.3583 11.74C48.3716 11.9 48.3783 12.0133 48.3783 12.08C48.3783 12.4267 48.3383 12.74 48.2583 13.02C47.9916 13.18 47.7049 13.26 47.3983 13.26C46.9316 13.26 46.6383 13.08 46.5183 12.72C46.5049 12.6 46.4916 12.38 46.4783 12.06C46.4649 11.7267 46.4516 11.2867 46.4383 10.74C46.4649 10.6867 46.4849 10.5467 46.4983 10.32C46.5116 10.08 46.5249 9.83333 46.5383 9.58C46.5516 9.31333 46.5583 9.07333 46.5583 8.86C46.5716 8.63333 46.5783 8.5 46.5783 8.46C46.5783 8.43333 46.5716 8.4 46.5583 8.36C46.5583 8.30667 46.5583 8.25333 46.5583 8.2C46.5583 8.12 46.5649 8.00667 46.5783 7.86C46.5916 7.71333 46.5983 7.56667 46.5983 7.42C46.6116 7.26 46.6249 7.10667 46.6383 6.96C46.6516 6.81333 46.6583 6.7 46.6583 6.62V6.36C46.6849 6.28 46.7116 6.12667 46.7383 5.9C46.7649 5.66 46.7849 5.41333 46.7983 5.16C46.8116 4.89333 46.8183 4.66 46.8183 4.46C46.8316 4.26 46.8383 4.15333 46.8383 4.14L46.9783 2.34C47.1916 1.88667 47.4983 1.66 47.8983 1.66C48.1516 1.66 48.3783 1.74667 48.5783 1.92C48.7916 2.09333 48.8983 2.28667 48.8983 2.5C48.7249 3.12667 48.6316 3.77333 48.6183 4.44C48.6316 4.49333 48.6383 4.56 48.6383 4.64C48.6383 4.70667 48.6383 4.79333 48.6383 4.9C48.6383 5.02 48.6383 5.16667 48.6383 5.34C48.6383 5.5 48.6249 5.68 48.5983 5.88C49.0783 5.45333 49.5783 5.07333 50.0983 4.74C50.6316 4.40667 51.0449 4.16 51.3383 4C51.5649 3.88 51.8183 3.75333 52.0983 3.62C52.3783 3.47333 52.6783 3.33333 52.9983 3.2H53.0583C53.2583 3.2 53.4583 3.3 53.6583 3.5C53.8716 3.7 53.9783 3.93333 53.9783 4.2C53.9783 4.37333 53.9183 4.52667 53.7983 4.66C53.6783 4.78 53.5116 4.89333 53.2983 5C53.0983 5.10667 52.8649 5.22 52.5983 5.34C52.3316 5.46 52.0516 5.59333 51.7583 5.74C51.5716 5.86 51.3516 6.01333 51.0983 6.2C50.8583 6.37333 50.5849 6.58 50.2783 6.82C50.3849 6.9 50.4983 7 50.6183 7.12C50.7516 7.22667 50.9049 7.36 51.0783 7.52C51.2649 7.66667 51.4783 7.84667 51.7183 8.06C51.9716 8.26 52.2783 8.48667 52.6383 8.74C52.8116 8.9 53.0249 9.10667 53.2783 9.36C53.5316 9.61333 53.7649 9.88 53.9783 10.16C54.2049 10.4267 54.3983 10.6867 54.5583 10.94C54.7183 11.1933 54.7983 11.4 54.7983 11.56ZM76.858 7.06C76.8446 7.1 76.7713 7.23333 76.638 7.46C76.518 7.67333 76.3846 7.90667 76.238 8.16C76.0913 8.41333 75.9513 8.64667 75.818 8.86C75.698 9.07333 75.638 9.19333 75.638 9.22C75.558 9.28667 75.3113 9.62 74.898 10.22C75.0846 10.3933 75.2513 10.5467 75.398 10.68C75.5446 10.8 75.6846 10.9133 75.818 11.02C75.9646 11.1133 76.1113 11.1933 76.258 11.26C76.418 11.3267 76.598 11.3867 76.798 11.44C77.0246 11.64 77.138 11.8867 77.138 12.18C77.138 12.4333 77.058 12.6467 76.898 12.82C76.738 12.9933 76.5513 13.08 76.338 13.08C75.7113 13.0267 75.0446 12.7067 74.338 12.12L73.798 11.62C73.278 12.1267 72.8846 12.4667 72.618 12.64C72.5113 12.7467 72.3513 12.8533 72.138 12.96C71.938 13.0667 71.7113 13.16 71.458 13.24C71.2046 13.3333 70.9313 13.4067 70.638 13.46C70.358 13.5267 70.0846 13.5667 69.818 13.58L68.758 13.4C68.278 13.32 67.8513 13.1733 67.478 12.96C67.1046 12.7467 66.7846 12.4933 66.518 12.2C66.2646 11.8933 66.0646 11.5733 65.918 11.24C65.7846 10.8933 65.718 10.5467 65.718 10.2C65.718 9.94667 65.778 9.63333 65.898 9.26C66.018 8.88667 66.2046 8.5 66.458 8.1C66.7113 7.7 67.0313 7.30667 67.418 6.92C67.818 6.52 68.2913 6.16667 68.838 5.86C68.7446 5.71333 68.658 5.55333 68.578 5.38C68.5113 5.23333 68.4446 5.06 68.378 4.86C68.3246 4.64667 68.2846 4.42 68.258 4.18C68.258 3.52667 68.338 2.98667 68.498 2.56C68.6713 2.13333 68.878 1.8 69.118 1.56C69.358 1.30667 69.6113 1.13333 69.878 1.04C70.1446 0.946666 70.378 0.9 70.578 0.9C70.6713 0.9 70.7913 0.919999 70.938 0.959999C71.098 0.986666 71.2513 1.02 71.398 1.06C71.558 1.1 71.6913 1.14 71.798 1.18C71.918 1.22 71.998 1.24 72.038 1.24C72.1713 1.32 72.3113 1.44667 72.458 1.62C72.6046 1.79333 72.738 1.98667 72.858 2.2C72.978 2.41333 73.078 2.63333 73.158 2.86C73.238 3.07333 73.278 3.26 73.278 3.42C73.278 3.78 73.2513 4.09333 73.198 4.36C73.1446 4.62667 73.0513 4.87333 72.918 5.1C72.798 5.32667 72.6246 5.54667 72.398 5.76C72.1846 5.96 71.9113 6.18 71.578 6.42L73.078 8.26C73.198 8.36667 73.398 8.56667 73.678 8.86C73.9446 8.54 74.1446 8.28 74.278 8.08C74.4246 7.88 74.5446 7.69333 74.638 7.52C74.7313 7.34667 74.8246 7.16667 74.918 6.98C75.0113 6.79333 75.1513 6.54667 75.338 6.24C75.5113 5.92 75.7446 5.76 76.038 5.76C76.2646 5.76 76.4646 5.86 76.638 6.06C76.8246 6.24667 76.918 6.46667 76.918 6.72C76.918 6.85333 76.898 6.96667 76.858 7.06ZM71.478 3.52C71.4513 3.32 71.3646 3.14 71.218 2.98C71.0846 2.80667 70.8913 2.72 70.638 2.72C70.2246 2.72 70.018 3.07333 70.018 3.78C70.018 3.96667 70.0513 4.16 70.118 4.36C70.1846 4.54667 70.2846 4.79333 70.418 5.1C71.1246 4.74 71.478 4.26 71.478 3.66V3.52ZM72.538 10.4C72.2846 10.0667 72.0113 9.77333 71.718 9.52L71.018 8.54C70.8446 8.36667 70.5046 7.94 69.998 7.26C69.7313 7.38 69.4646 7.54667 69.198 7.76C68.9446 7.96 68.7113 8.19333 68.498 8.46C68.298 8.71333 68.1313 8.98667 67.998 9.28C67.878 9.57333 67.818 9.87333 67.818 10.18C67.818 10.6733 67.9713 11.06 68.278 11.34C68.598 11.62 69.018 11.76 69.538 11.76C69.818 11.76 70.1046 11.7267 70.398 11.66C70.6913 11.58 70.9713 11.48 71.238 11.36C71.5046 11.2267 71.7446 11.08 71.958 10.92C72.1846 10.76 72.378 10.5867 72.538 10.4ZM95.9959 8.96C95.9826 9.36 95.9693 9.68 95.9559 9.92C95.9426 10.1467 95.9226 10.34 95.8959 10.5C95.8826 10.6467 95.8493 10.78 95.7959 10.9C95.7559 11.02 95.6959 11.1667 95.6159 11.34C95.3359 11.98 94.9026 12.4733 94.3159 12.82C93.7293 13.1667 92.9826 13.34 92.0759 13.34C91.7559 13.34 91.5026 13.34 91.3159 13.34C91.1293 13.34 90.9226 13.3067 90.6959 13.24C90.4826 13.1733 90.2093 13.06 89.8759 12.9C89.5426 12.7267 89.0693 12.48 88.4559 12.16C87.9759 11.9067 87.7359 11.5867 87.7359 11.2C87.7359 10.96 87.8159 10.7467 87.9759 10.56C88.1359 10.36 88.3426 10.2467 88.5959 10.22C89.5559 10.5267 90.2159 10.8467 90.5759 11.18C91.0559 11.3933 91.6359 11.5 92.3159 11.5C92.8893 11.5 93.3493 11.3333 93.6959 11C93.7493 10.8533 93.8026 10.6467 93.8559 10.38C93.9226 10.1133 93.9559 9.79333 93.9559 9.42C93.9559 9.12667 93.8693 8.88667 93.6959 8.7C93.5226 8.5 93.3026 8.32667 93.0359 8.18C92.7693 8.03333 92.4693 7.9 92.1359 7.78C91.8159 7.66 91.5093 7.53333 91.2159 7.4C90.9893 7.30667 90.7626 7.2 90.5359 7.08C90.3093 6.96 90.0826 6.80667 89.8559 6.62C89.2826 5.64667 88.9959 4.96 88.9959 4.56C88.9959 3.56 89.5893 2.60667 90.7759 1.7C91.8826 1.28667 92.6359 1.08 93.0359 1.08C93.1826 1.08 93.3759 1.13333 93.6159 1.24C93.8559 1.34667 94.0893 1.48 94.3159 1.64C94.5559 1.8 94.7559 1.98 94.9159 2.18C95.0893 2.36667 95.1759 2.55333 95.1759 2.74C95.1759 2.96667 95.0826 3.16667 94.8959 3.34C94.7226 3.5 94.4959 3.58 94.2159 3.58C94.1893 3.58 94.1159 3.54 93.9959 3.46C93.8759 3.38 93.7293 3.29333 93.5559 3.2C93.3959 3.10667 93.2293 3.02 93.0559 2.94C92.8959 2.86 92.7626 2.82 92.6559 2.82C92.4293 2.82 92.2093 2.87333 91.9959 2.98C91.7959 3.08667 91.6159 3.22 91.4559 3.38C91.2959 3.54 91.1693 3.72 91.0759 3.92C90.9826 4.10667 90.9359 4.28 90.9359 4.44C90.9359 4.74667 91.0293 5.02 91.2159 5.26C91.4026 5.5 91.6293 5.69333 91.8959 5.84L93.1559 6.28C93.4759 6.4 93.7893 6.55333 94.0959 6.74C94.4026 6.92667 94.6826 7.14 94.9359 7.38C95.1893 7.60667 95.4093 7.86 95.5959 8.14C95.7826 8.40667 95.9159 8.68 95.9959 8.96ZM104.07 12.5C103.897 12.62 103.617 12.74 103.23 12.86C102.843 12.9667 102.443 13.06 102.03 13.14L101.21 12.98C101.09 12.94 100.89 12.8467 100.61 12.7C100.343 12.5533 100.07 12.3333 99.7898 12.04C99.5098 11.7333 99.2632 11.3467 99.0498 10.88C98.8365 10.4 98.7298 9.82 98.7298 9.14C98.7298 8.9 98.7832 8.62 98.8898 8.3C99.0098 7.96667 99.1832 7.66 99.4098 7.38C99.6365 7.08667 99.9165 6.84 100.25 6.64C100.597 6.44 100.997 6.34 101.45 6.34C102.357 6.34 103.177 6.63333 103.91 7.22C104.55 8.1 104.87 9.07333 104.87 10.14C104.87 10.9267 104.603 11.7133 104.07 12.5ZM103.09 9.66C103.023 9.14 102.857 8.73333 102.59 8.44C102.337 8.13333 102.01 7.98 101.61 7.98C101.343 7.98 101.09 8.11333 100.85 8.38C100.623 8.63333 100.51 9.00667 100.51 9.5C100.51 9.7 100.537 9.91333 100.59 10.14C100.643 10.3533 100.73 10.5533 100.85 10.74C100.97 10.9133 101.123 11.06 101.31 11.18C101.497 11.2867 101.723 11.34 101.99 11.34C102.417 11.34 102.71 11.2133 102.87 10.96C103.03 10.6933 103.11 10.3667 103.11 9.98C103.11 9.92667 103.103 9.88 103.09 9.84C103.09 9.78667 103.09 9.72667 103.09 9.66ZM119.007 11.86C119.007 12.0333 118.907 12.18 118.707 12.3C118.521 12.4067 118.314 12.46 118.087 12.46C117.821 12.46 117.621 12.3733 117.487 12.2C117.367 12.0267 117.281 11.8067 117.227 11.54C117.174 11.26 117.141 10.9533 117.127 10.62C117.127 10.2867 117.121 9.96667 117.107 9.66C117.081 9.56667 117.047 9.43333 117.007 9.26C116.967 9.08667 116.934 8.86667 116.907 8.6C116.547 8.2 116.114 8 115.607 8C115.421 8 115.234 8.02 115.047 8.06C114.861 8.08667 114.687 8.16 114.527 8.28C114.367 8.38667 114.221 8.55333 114.087 8.78C113.954 9.00667 113.847 9.31333 113.767 9.7C113.781 9.76667 113.787 9.88667 113.787 10.06C113.787 10.2067 113.774 10.3867 113.747 10.6C113.734 10.8 113.714 11.0333 113.687 11.3V11.4C113.687 11.4533 113.687 11.5867 113.687 11.8C113.687 12 113.661 12.2133 113.607 12.44C113.554 12.6533 113.454 12.8467 113.307 13.02C113.174 13.1933 112.974 13.28 112.707 13.28C112.467 13.28 112.254 13.2067 112.067 13.06C111.881 12.9267 111.787 12.76 111.787 12.56C111.787 12.5333 111.794 12.4333 111.807 12.26C111.834 12.0867 111.861 11.8933 111.887 11.68C111.927 11.4533 111.954 11.2333 111.967 11.02C111.994 10.7933 112.007 10.6133 112.007 10.48C112.007 10.2533 111.987 10.0267 111.947 9.8V9.54C111.947 8.86 111.814 8.22 111.547 7.62C111.347 7.46 111.034 7.35333 110.607 7.3C110.527 7.32667 110.427 7.36667 110.307 7.42C110.187 7.47333 110.067 7.58667 109.947 7.76C109.827 7.92 109.721 8.15333 109.627 8.46C109.534 8.76667 109.467 9.18 109.427 9.7L109.367 10.52C109.447 10.92 109.487 11.2667 109.487 11.56C109.487 11.9067 109.427 12.1867 109.307 12.4C109.201 12.6 108.954 12.7 108.567 12.7C108.367 12.7 108.201 12.68 108.067 12.64C107.947 12.5867 107.847 12.48 107.767 12.32C107.701 12.1467 107.654 11.9 107.627 11.58C107.601 11.2467 107.587 10.8067 107.587 10.26C107.587 9.82 107.614 9.39333 107.667 8.98C107.721 8.55333 107.801 8.00667 107.907 7.34C107.867 7.11333 107.807 6.90667 107.727 6.72C107.661 6.52 107.627 6.36667 107.627 6.26C107.627 6.03333 107.727 5.83333 107.927 5.66C108.127 5.48667 108.361 5.4 108.627 5.4C108.827 5.4 109.007 5.46 109.167 5.58L109.507 6.02C109.667 5.88667 109.807 5.78667 109.927 5.72C110.047 5.64 110.154 5.58 110.247 5.54C110.341 5.5 110.434 5.48 110.527 5.48C110.621 5.46667 110.727 5.46 110.847 5.46C111.021 5.46 111.154 5.46 111.247 5.46C111.354 5.46 111.461 5.48 111.567 5.52C111.674 5.56 111.794 5.62667 111.927 5.72C112.074 5.8 112.274 5.92667 112.527 6.1C112.687 6.20667 112.901 6.55333 113.167 7.14L113.287 7C113.394 6.90667 113.541 6.81333 113.727 6.72C113.914 6.62667 114.114 6.54667 114.327 6.48C114.554 6.4 114.781 6.34 115.007 6.3C115.247 6.24667 115.461 6.22 115.647 6.22C116.087 6.22 116.467 6.26667 116.787 6.36C117.107 6.44 117.381 6.56667 117.607 6.74C117.834 6.9 118.034 7.11333 118.207 7.38C118.381 7.63333 118.547 7.92667 118.707 8.26V8.4C118.707 8.50667 118.721 8.7 118.747 8.98C118.774 9.26 118.801 9.54 118.827 9.82C118.854 10.1 118.881 10.3467 118.907 10.56C118.934 10.76 118.947 10.8467 118.947 10.82C118.947 10.8333 118.947 10.88 118.947 10.96C118.961 11.0267 118.967 11.1133 118.967 11.22C118.981 11.3133 118.987 11.4133 118.987 11.52C119.001 11.6133 119.007 11.6867 119.007 11.74V11.86Z" fill="black"/>
</svg>
