<svg width="50" height="71" viewBox="0 0 50 71" fill="none" xmlns="http://www.w3.org/2000/svg">
<path d="M25.6919 5.79715C25.7736 6.64692 25.8762 7.55418 26.005 8.49301C26.322 10.8031 26.7993 13.3161 27.5199 15.639C28.2389 17.9568 29.2106 20.1198 30.5328 21.6982C31.877 23.3029 33.7369 24.487 35.7368 25.3666C37.741 26.248 39.9157 26.8364 41.9173 27.2302C42.9263 27.4288 43.8939 27.5783 44.777 27.691C43.8646 27.8859 42.8586 28.1283 41.8047 28.4274C37.7511 29.5779 32.8912 31.5942 29.9669 35.0761C28.4945 36.8291 27.2806 39.9627 26.2797 43.5775C25.2721 47.2162 24.4574 51.4305 23.8192 55.4236C23.4894 57.4867 23.2062 59.494 22.9675 61.3367C22.9437 59.5129 22.893 57.5325 22.7999 55.5026C22.6176 51.531 22.2722 47.3545 21.6428 43.7871C21.328 42.0032 20.9402 40.3592 20.4613 38.9636C19.9842 37.5735 19.4054 36.3958 18.6933 35.5761C17.3533 34.0335 15.5205 32.8877 13.5573 32.0312C11.5899 31.1728 9.46261 30.5927 7.50747 30.1998C6.68363 30.0343 5.88861 29.9016 5.14682 29.7954C5.96004 29.641 6.84014 29.4517 7.7571 29.2201C11.7977 28.1995 16.6529 26.3348 19.6045 22.9298C22.6041 19.4696 24.2631 13.6974 25.1782 8.88275C25.3839 7.80008 25.5531 6.75984 25.6919 5.79715Z" fill="#00A676" stroke="black" stroke-linejoin="round"/>
</svg>
