<svg width="30" height="29" viewBox="0 0 30 29" fill="none" xmlns="http://www.w3.org/2000/svg">
<path d="M7.70513 17.1081C8.62952 17.1081 9.20679 18.1017 8.74364 18.8956L5.49591 24.4626C5.1633 25.0326 5.36035 25.7625 5.93566 26.0911L9.0693 27.8817C9.64267 28.2092 10.3751 28.0145 10.7066 27.4464L13.9615 21.867C14.4237 21.0748 15.5763 21.0748 16.0385 21.867L19.2934 27.4464C19.6249 28.0145 20.3573 28.2092 20.9307 27.8817L24.0644 26.0911C24.6397 25.7625 24.8368 25.0326 24.504 24.4626L21.2563 18.8956C20.7932 18.1017 21.3705 17.1081 22.2948 17.1081H28.8C29.4628 17.1081 30 16.5749 30 15.9172V12.3412C30 11.6836 29.4628 11.1504 28.8 11.1504H22.2948C21.3705 11.1504 20.7932 10.1568 21.2563 9.3629L24.504 3.79591C24.8368 3.22577 24.6397 2.49597 24.0644 2.16725L20.9307 0.376805C20.3573 0.0491957 19.6249 0.243944 19.2934 0.81216L16.0385 6.39141C15.5763 7.18367 14.4237 7.18367 13.9615 6.39141L10.7066 0.81216C10.3751 0.243942 9.64267 0.0491957 9.0693 0.376805L5.93566 2.16725C5.36033 2.49597 5.16328 3.22577 5.49591 3.79591L8.74366 9.3629C9.20681 10.1568 8.62955 11.1504 7.70513 11.1504H1.2C0.537258 11.1504 0 11.6836 0 12.3412V15.9172C0 16.5749 0.537258 17.1081 1.2 17.1081H7.70513Z" fill="#FF6F61"/>
</svg>
