<svg width="120" height="120" viewBox="0 0 120 120" fill="none" xmlns="http://www.w3.org/2000/svg">
<circle cx="60" cy="60" r="59.5" fill="#F6AFC6" stroke="black"/>
<path d="M54.761 7.42141H57.0365L59.4399 13.285H59.5422L61.9456 7.42141H64.2212V16.1487H62.4314V10.4683H62.359L60.1005 16.1061H58.8817L56.6232 10.447H56.5507V16.1487H54.761V7.42141Z" fill="black"/>
<path d="M65.1651 7.26689L67.2081 7.57922L68.5667 11.5889L68.6509 11.6018L71.2267 8.19357L73.2698 8.5059L69.2095 13.5924L68.7099 16.6369L66.8986 16.36L67.3981 13.3155L65.1651 7.26689Z" fill="black"/>
<path d="M78.4911 20.0848L75.7149 18.7195L79.7891 11.0016L82.5882 12.3782C83.3759 12.7656 83.9725 13.2536 84.3778 13.8422C84.7845 14.4283 84.989 15.0842 84.9912 15.81C84.9959 16.537 84.7868 17.3013 84.3637 18.1027C83.9393 18.9066 83.4204 19.5217 82.8069 19.9478C82.1959 20.3752 81.5221 20.6024 80.7854 20.6293C80.0512 20.6575 79.2864 20.476 78.4911 20.0848ZM78.1087 18.1357L79.1603 18.6528C79.6497 18.8936 80.1065 19.0106 80.5307 19.004C80.9587 18.9962 81.3523 18.8527 81.7116 18.5737C82.0747 18.2934 82.4081 17.8656 82.7118 17.2903C83.0128 16.72 83.1734 16.2119 83.1936 15.7661C83.2163 15.3216 83.1058 14.9318 82.862 14.5967C82.6183 14.2617 82.2517 13.9738 81.7622 13.733L80.7068 13.214L78.1087 18.1357Z" fill="black"/>
<path d="M91.3543 22.7422C90.782 23.5025 90.1474 24.0458 89.4505 24.3721C88.7559 24.6999 88.0492 24.8268 87.3302 24.7527C86.6154 24.6779 85.9427 24.4195 85.3124 23.9774C84.6774 23.5321 84.2135 22.9918 83.9206 22.3564C83.6277 21.721 83.5355 21.0338 83.6439 20.2949C83.7523 19.556 84.0919 18.8075 84.6625 18.0494C85.2349 17.289 85.8683 16.7449 86.5629 16.417C87.2575 16.0891 87.9622 15.9626 88.6771 16.0374C89.3936 16.1099 90.0694 16.3688 90.7044 16.8141C91.3348 17.2561 91.7964 17.7948 92.0893 18.4303C92.3862 19.065 92.4804 19.7519 92.372 20.4908C92.2659 21.2313 91.9267 21.9818 91.3543 22.7422ZM89.8227 21.668C90.1934 21.1755 90.4305 20.7071 90.5339 20.2629C90.6396 19.8203 90.6221 19.4162 90.4815 19.0506C90.341 18.685 90.0881 18.3741 89.7229 18.1181C89.3577 17.862 88.9733 17.7259 88.5696 17.7098C88.1659 17.6937 87.7612 17.8018 87.3554 18.034C86.952 18.2678 86.5649 18.6309 86.1942 19.1235C85.8234 19.616 85.5852 20.0836 85.4795 20.5262C85.3761 20.9704 85.3947 21.3753 85.5353 21.7409C85.6759 22.1065 85.9288 22.4174 86.2939 22.6735C86.6591 22.9295 87.0436 23.0656 87.4472 23.0817C87.8509 23.0978 88.2545 22.9889 88.6579 22.7551C89.0637 22.5229 89.4519 22.1606 89.8227 21.668Z" fill="black"/>
<path d="M96.4874 25.3862C96.5937 25.2008 96.6652 25.0153 96.702 24.8299C96.7408 24.6424 96.7439 24.456 96.7112 24.2705C96.6826 24.0851 96.6182 23.9026 96.518 23.723C96.4199 23.5455 96.285 23.3738 96.1133 23.2081C95.7924 22.8983 95.4306 22.703 95.0279 22.6221C94.6273 22.5432 94.2072 22.5856 93.7677 22.7494C93.3303 22.9112 92.8929 23.2031 92.4554 23.6254C92.018 24.0476 91.7124 24.4708 91.5387 24.895C91.3649 25.3192 91.319 25.7266 91.4007 26.1172C91.4845 26.5059 91.692 26.86 92.0231 27.1797C92.3236 27.4697 92.6333 27.666 92.9522 27.7686C93.2751 27.8712 93.5909 27.882 93.8996 27.8011C94.2103 27.7222 94.4995 27.5535 94.7673 27.2951L94.9972 27.594L93.3783 26.0314L94.3779 25.0666L97.0055 27.6029L96.2145 28.3664C95.6626 28.8991 95.0718 29.2444 94.4423 29.4022C93.8147 29.5581 93.1893 29.5423 92.5658 29.3548C91.9444 29.1654 91.3701 28.8162 90.8427 28.3072C90.254 27.739 89.8666 27.1145 89.6806 26.4339C89.4967 25.7512 89.5202 25.0577 89.7512 24.3534C89.9862 23.649 90.4349 22.9772 91.0972 22.338C91.6061 21.8467 92.1335 21.4798 92.6793 21.2371C93.2291 20.9944 93.7769 20.8681 94.3227 20.8583C94.8685 20.8484 95.3917 20.9451 95.8925 21.1483C96.3933 21.3515 96.8512 21.6534 97.2661 22.0539C97.6218 22.3972 97.9008 22.7671 98.1032 23.1637C98.3076 23.5583 98.4343 23.9608 98.4834 24.3711C98.5345 24.7835 98.5059 25.188 98.3975 25.5845C98.2912 25.9791 98.1042 26.3471 97.8364 26.6884L96.4874 25.3862Z" fill="black"/>
<path d="M105.475 37.0527C105.768 36.8708 105.939 36.6236 105.989 36.311C106.039 35.9983 105.961 35.6461 105.754 35.2541C105.613 34.9878 105.456 34.7818 105.283 34.636C105.112 34.489 104.935 34.399 104.751 34.3663C104.568 34.336 104.392 34.3622 104.224 34.445C104.081 34.5089 103.974 34.598 103.902 34.7122C103.832 34.8289 103.789 34.9626 103.772 35.1133C103.758 35.2627 103.762 35.4253 103.784 35.6011C103.809 35.7757 103.846 35.9565 103.897 36.1436L104.095 36.9198C104.196 37.2941 104.257 37.6532 104.278 37.9973C104.299 38.3414 104.271 38.6622 104.194 38.9597C104.116 39.2572 103.981 39.5246 103.789 39.7618C103.597 40.0015 103.339 40.2028 103.014 40.3658C102.534 40.599 102.054 40.6828 101.577 40.6171C101.103 40.5527 100.651 40.3446 100.221 39.9926C99.7951 39.642 99.4163 39.1526 99.0848 38.5245C98.7559 37.9015 98.5663 37.3112 98.516 36.7536C98.467 36.1986 98.5642 35.6983 98.8074 35.2527C99.0545 34.8084 99.4565 34.4414 100.013 34.1517L100.847 35.7307C100.593 35.8775 100.413 36.0594 100.306 36.2765C100.203 36.495 100.166 36.7366 100.193 37.0016C100.224 37.2678 100.314 37.5416 100.463 37.823C100.609 38.0994 100.776 38.3193 100.965 38.4826C101.156 38.6485 101.353 38.7523 101.558 38.7939C101.763 38.8355 101.96 38.8099 102.149 38.7171C102.325 38.6306 102.445 38.5064 102.511 38.3444C102.577 38.185 102.601 37.9866 102.582 37.7493C102.564 37.5145 102.515 37.2394 102.435 36.9242L102.206 35.9785C102.023 35.2488 102.003 34.6116 102.146 34.0667C102.288 33.5218 102.65 33.1084 103.23 32.8263C103.702 32.5906 104.182 32.5112 104.669 32.5882C105.158 32.6676 105.618 32.8796 106.05 33.224C106.482 33.5683 106.847 34.0219 107.144 34.5847C107.446 35.1575 107.611 35.7063 107.638 36.2312C107.666 36.7586 107.565 37.2288 107.337 37.6417C107.109 38.0547 106.763 38.3796 106.301 38.6166L105.475 37.0527Z" fill="black"/>
<path d="M107.855 47.9537C106.947 48.2385 106.117 48.3098 105.364 48.1677C104.613 48.0282 103.971 47.7177 103.437 47.2361C102.907 46.7565 102.519 46.1518 102.273 45.4221C102.026 44.6871 101.972 43.9747 102.111 43.285C102.251 42.5954 102.582 41.981 103.105 41.442C103.628 40.903 104.342 40.4915 105.247 40.2075C106.155 39.9227 106.985 39.8501 107.736 39.9895C108.487 40.129 109.128 40.4386 109.658 40.9183C110.191 41.3971 110.581 42.0041 110.829 42.7391C111.074 43.4688 111.127 44.1784 110.988 44.8681C110.852 45.5596 110.523 46.1749 110 46.7139C109.478 47.2557 108.763 47.6689 107.855 47.9537ZM107.258 46.1807C107.846 45.9962 108.313 45.7532 108.658 45.4515C109.004 45.1525 109.228 44.8128 109.331 44.4323C109.433 44.0518 109.414 43.6502 109.271 43.2275C109.129 42.8048 108.9 42.4687 108.586 42.2191C108.271 41.9695 107.882 41.8206 107.419 41.7723C106.957 41.7266 106.432 41.796 105.844 41.9805C105.256 42.165 104.789 42.4067 104.443 42.7057C104.098 43.0074 103.874 43.3485 103.771 43.7289C103.669 44.1094 103.688 44.511 103.831 44.9337C103.973 45.3564 104.202 45.6926 104.516 45.9421C104.831 46.1917 105.219 46.3393 105.681 46.3849C106.144 46.4333 106.67 46.3652 107.258 46.1807Z" fill="black"/>
<path d="M112.168 46.8432L112.536 49.0887L107.129 52.3465L107.146 52.4474L113.331 53.933L113.7 56.1786L105.073 57.4974L104.783 55.7313L110.398 54.8729L110.386 54.8014L104.447 53.4246L104.25 52.222L109.478 49.138L109.467 49.0666L103.83 49.9282L103.541 48.162L112.168 46.8432Z" fill="black"/>
<path d="M110.394 67.4644C110.74 67.4827 111.027 67.3787 111.257 67.1523C111.487 66.926 111.638 66.5941 111.71 66.1568C111.759 65.8596 111.758 65.6023 111.707 65.3848C111.659 65.1677 111.571 64.9933 111.443 64.8616C111.315 64.7328 111.158 64.6542 110.972 64.6258C110.819 64.5966 110.679 64.6083 110.552 64.6607C110.425 64.716 110.309 64.8003 110.204 64.9136C110.102 65.0273 110.006 65.1621 109.917 65.3181C109.831 65.4745 109.752 65.6433 109.679 65.8247L109.367 66.5701C109.221 66.9329 109.052 67.2606 108.86 67.5531C108.668 67.8456 108.451 68.0911 108.208 68.2897C107.965 68.4882 107.694 68.6293 107.396 68.713C107.096 68.7994 106.767 68.8166 106.407 68.7644C105.879 68.6809 105.444 68.4764 105.1 68.1508C104.758 67.8284 104.522 67.4015 104.39 66.8698C104.261 66.3414 104.254 65.7268 104.369 65.0259C104.483 64.3307 104.689 63.7415 104.987 63.2583C105.285 62.7779 105.667 62.4253 106.132 62.2005C106.601 61.9789 107.146 61.9086 107.769 61.9895L107.48 63.7514C107.188 63.7268 106.932 63.7726 106.715 63.8887C106.499 64.0081 106.322 64.1837 106.184 64.4153C106.047 64.6502 105.953 64.9247 105.902 65.2387C105.851 65.5471 105.852 65.8216 105.905 66.0625C105.957 66.3061 106.053 66.5032 106.192 66.6538C106.331 66.8045 106.505 66.8956 106.713 66.9274C106.906 66.957 107.079 66.9245 107.23 66.8297C107.38 66.7378 107.52 66.5895 107.648 66.385C107.776 66.1833 107.904 65.9313 108.031 65.6289L108.421 64.7272C108.717 64.0282 109.088 63.4972 109.533 63.1342C109.978 62.7712 110.52 62.6398 111.157 62.7401C111.679 62.8171 112.113 63.0257 112.457 63.3657C112.801 63.7085 113.042 64.1434 113.18 64.6703C113.318 65.1971 113.336 65.7746 113.233 66.4025C113.128 67.0417 112.927 67.5828 112.63 68.0259C112.332 68.4718 111.966 68.7981 111.532 69.0048C111.098 69.2114 110.623 69.2797 110.108 69.2095L110.394 67.4644Z" fill="black"/>
<path d="M105.651 77.5924C104.743 77.3076 104.028 76.8943 103.506 76.3526C102.983 75.8136 102.652 75.1979 102.514 74.5055C102.377 73.8167 102.432 73.1074 102.677 72.3778C102.925 71.6427 103.315 71.0358 103.848 70.5569C104.38 70.0781 105.022 69.7689 105.774 69.6295C106.525 69.49 107.353 69.5623 108.259 69.8462C109.167 70.131 109.882 70.5429 110.405 71.0819C110.928 71.621 111.258 72.2349 111.394 72.9237C111.534 73.6134 111.48 74.3258 111.232 75.0608C110.987 75.7904 110.597 76.3947 110.065 76.8735C109.534 77.3559 108.893 77.6669 108.141 77.8063C107.389 77.9485 106.559 77.8772 105.651 77.5924ZM106.248 75.8194C106.836 76.0039 107.362 76.0719 107.824 76.0236C108.286 75.978 108.675 75.8304 108.989 75.5808C109.304 75.3312 109.533 74.9951 109.675 74.5724C109.817 74.1497 109.837 73.7481 109.734 73.3676C109.632 72.9871 109.408 72.6461 109.063 72.3444C108.717 72.0454 108.25 71.8037 107.662 71.6192C107.073 71.4347 106.548 71.3653 106.087 71.4109C105.624 71.4593 105.235 71.6082 104.92 71.8578C104.605 72.1073 104.377 72.4435 104.235 72.8662C104.092 73.2889 104.072 73.6905 104.175 74.071C104.278 74.4514 104.502 74.7912 104.848 75.0902C105.193 75.3918 105.66 75.6349 106.248 75.8194Z" fill="black"/>
<path d="M98.8571 90.8667L99.9796 89.3754C100.198 89.4868 100.415 89.5544 100.632 89.5781C100.851 89.6034 101.065 89.5885 101.273 89.5335C101.482 89.4786 101.68 89.3852 101.868 89.2535C102.054 89.124 102.222 88.9594 102.373 88.7597C102.644 88.3988 102.789 88.02 102.807 87.6233C102.827 87.2283 102.718 86.8346 102.48 86.4424C102.245 86.0518 101.88 85.6828 101.384 85.3354C100.875 84.9782 100.391 84.7518 99.9336 84.6563C99.4742 84.5631 99.0554 84.5884 98.677 84.7323C98.2986 84.8761 97.977 85.124 97.7122 85.4758C97.5636 85.6733 97.4528 85.8747 97.3798 86.0802C97.3052 86.288 97.2695 86.4935 97.2728 86.697C97.2783 86.902 97.3231 87.0998 97.407 87.2905C97.4893 87.4834 97.6129 87.6638 97.778 87.8316L96.6486 89.3179C96.3496 89.0493 96.1059 88.731 95.9174 88.363C95.7295 87.9989 95.6131 87.6034 95.5683 87.1767C95.5241 86.7538 95.5664 86.3153 95.6951 85.8611C95.8244 85.4107 96.0573 84.962 96.3939 84.5149C96.862 83.8929 97.4248 83.438 98.0822 83.15C98.738 82.8642 99.446 82.7712 100.206 82.8708C100.965 82.9726 101.732 83.296 102.509 83.8408C103.288 84.3872 103.844 84.9951 104.175 85.6644C104.506 86.3337 104.63 87.0138 104.548 87.7047C104.467 88.3972 104.196 89.0499 103.735 89.6627C103.431 90.0668 103.09 90.4005 102.714 90.6639C102.337 90.9296 101.935 91.1181 101.511 91.2294C101.088 91.3422 100.653 91.3701 100.206 91.313C99.7565 91.2581 99.307 91.1093 98.8571 90.8667Z" fill="black"/>
<path d="M97.1579 96.8848L95.8303 98.1663L91.7524 94.2302C91.2945 93.7883 91.0032 93.296 90.8785 92.7534C90.7518 92.2129 90.7876 91.6614 90.9858 91.0991C91.1862 90.5388 91.5459 90.0081 92.0651 89.5069C92.5863 89.0038 93.1372 88.6556 93.7177 88.4623C94.3003 88.2709 94.8716 88.2363 95.4317 88.3587C95.9917 88.481 96.5007 88.7631 96.9586 89.2051L101.036 93.1411L99.7089 94.4226L95.7444 90.596C95.5053 90.3652 95.2406 90.2103 94.9503 90.1314C94.658 90.0544 94.3626 90.0574 94.0642 90.1403C93.7658 90.2231 93.4888 90.3879 93.2333 90.6345C92.9757 90.8831 92.8051 91.1504 92.7213 91.4365C92.6354 91.7245 92.6334 92.0087 92.7151 92.2888C92.7948 92.5709 92.9543 92.8274 93.1934 93.0583L97.1579 96.8848Z" fill="black"/>
<path d="M94.4228 97.5757L95.3377 98.7912L89.4693 102.907L88.5544 101.691L90.7419 100.157L86.4083 94.3998L87.9016 93.3526L92.2352 99.1098L94.4228 97.5757Z" fill="black"/>
<path d="M84.1502 96.132L88.2244 103.85L82.9473 106.445L82.2372 105.1L85.8584 103.319L84.8876 101.48L81.5378 103.127L80.8277 101.782L84.1774 100.135L83.2046 98.2917L79.5681 100.08L78.8579 98.7348L84.1502 96.132Z" fill="black"/>
<path d="M67.9073 106.471L67.6741 105.05L71.6085 104.448L71.8417 105.87L67.9073 106.471Z" fill="black"/>
<path d="M55.7391 111.656L53.4897 111.312L52.0633 105.162L51.9623 105.147L48.637 110.57L46.3875 110.226L47.8007 101.614L49.5699 101.885L48.6501 107.49L48.7217 107.501L51.8672 102.279L53.072 102.463L54.3882 108.389L54.4598 108.4L55.3831 102.773L57.1523 103.044L55.7391 111.656Z" fill="black"/>
<path d="M45.2692 109.927L43.2972 109.308L42.5974 105.151L42.5161 105.125L39.4181 108.092L37.4461 107.473L42.2835 103.079L43.2678 100.155L45.0162 100.703L44.0319 103.627L45.2692 109.927Z" fill="black"/>
<path d="M34.3032 95.5999L36.8361 97.3762L31.5876 104.349L29.0337 102.558C28.315 102.054 27.8014 101.48 27.4928 100.837C27.1826 100.197 27.0835 99.5188 27.1956 98.8032C27.3054 98.0861 27.6328 97.3655 28.1778 96.6414C28.7246 95.9151 29.3351 95.3896 30.0095 95.065C30.6816 94.7386 31.3844 94.6194 32.1179 94.7072C32.849 94.7934 33.5775 95.091 34.3032 95.5999ZM34.3746 97.5799L33.4152 96.9071C32.9686 96.5939 32.5349 96.4076 32.114 96.3483C31.6891 96.2896 31.2768 96.3698 30.8773 96.589C30.4737 96.8089 30.0763 97.1787 29.6851 97.6984C29.2972 98.2137 29.0582 98.6893 28.9681 99.1255C28.8755 99.56 28.9236 99.9612 29.1121 100.329C29.3006 100.697 29.6182 101.038 30.0647 101.351L31.0277 102.026L34.3746 97.5799Z" fill="black"/>
<path d="M22.0159 90.9917C22.7007 90.3308 23.413 89.8937 24.153 89.6807C24.8909 89.4656 25.6094 89.4508 26.3085 89.6363C27.0034 89.8217 27.6279 90.1818 28.1818 90.7165C28.7399 91.2551 29.1139 91.8608 29.304 92.5336C29.4941 93.2064 29.4778 93.8989 29.255 94.6111C29.0322 95.3233 28.5794 96.0089 27.8967 96.6679C27.2119 97.3289 26.5006 97.7669 25.7627 97.9819C25.0248 98.197 24.3083 98.2118 23.6134 98.0263C22.9163 97.8428 22.2888 97.4818 21.7308 96.9431C21.1768 96.4085 20.8048 95.8047 20.6147 95.132C20.4205 94.4592 20.4349 93.7667 20.6577 93.0544C20.8784 92.3402 21.3312 91.6526 22.0159 90.9917ZM23.3619 92.2909C22.9184 92.719 22.6108 93.1442 22.4391 93.5664C22.2653 93.9867 22.2193 94.3882 22.3011 94.7709C22.3828 95.1537 22.5842 95.4999 22.9051 95.8097C23.226 96.1194 23.5848 96.3138 23.9813 96.3927C24.3778 96.4716 24.7948 96.4282 25.2323 96.2625C25.6676 96.0948 26.1071 95.7969 26.5507 95.3687C26.9942 94.9406 27.3029 94.5164 27.4766 94.0962C27.6483 93.6739 27.6933 93.2715 27.6116 92.8887C27.5298 92.5059 27.3284 92.1597 27.0075 91.8499C26.6866 91.5402 26.3279 91.3458 25.9313 91.2669C25.5348 91.188 25.1188 91.2324 24.6834 91.4001C24.246 91.5658 23.8055 91.8628 23.3619 92.2909Z" fill="black"/>
<path d="M17.3902 87.5993C17.2563 87.7661 17.1567 87.9382 17.0914 88.1158C17.0237 88.2951 16.9915 88.4789 16.9948 88.6673C16.994 88.8552 17.029 89.0456 17.0997 89.2388C17.1687 89.4296 17.275 89.6204 17.4185 89.8111C17.6868 90.1674 18.0133 90.417 18.398 90.5599C18.781 90.7005 19.2022 90.7242 19.6615 90.6309C20.1185 90.5393 20.5959 90.319 21.0937 89.9699C21.5914 89.6209 21.9592 89.2502 22.1971 88.858C22.4349 88.4658 22.5441 88.0702 22.5245 87.6713C22.5026 87.274 22.3533 86.8914 22.0765 86.5237C21.8254 86.1901 21.5505 85.9476 21.2518 85.7964C20.9492 85.6445 20.6392 85.5845 20.3219 85.6162C20.003 85.6457 19.6911 85.7673 19.3864 85.981L19.2063 85.6496L20.5594 87.4472L19.422 88.2448L17.2257 85.3271L18.1259 84.6958C18.7539 84.2554 19.3909 84.0063 20.0369 83.9487C20.6806 83.8926 21.2954 84.0059 21.8813 84.2886C22.4649 84.5729 22.9771 85.0079 23.4179 85.5935C23.91 86.2471 24.1945 86.925 24.2716 87.6269C24.3463 88.3305 24.2146 89.0124 23.8764 89.6727C23.5342 90.3323 22.9863 90.9263 22.2327 91.4548C21.6535 91.8609 21.0756 92.1413 20.4991 92.296C19.9185 92.45 19.3581 92.4893 18.8179 92.4138C18.2778 92.3382 17.7765 92.1609 17.3141 91.8818C16.8517 91.6027 16.447 91.2327 16.1002 90.772C15.8029 90.377 15.5855 89.9677 15.4478 89.5441C15.3078 89.1221 15.2457 88.7044 15.2616 88.291C15.2756 87.8754 15.3672 87.48 15.5361 87.1049C15.7028 86.7314 15.9449 86.3969 16.2626 86.1013L17.3902 87.5993Z" fill="black"/>
<path d="M10.4247 74.7148C10.1075 74.85 9.89942 75.0686 9.80028 75.3705C9.70114 75.6725 9.72226 76.0335 9.86365 76.4535C9.95973 76.7389 10.0815 76.9672 10.229 77.1382C10.3738 77.3101 10.5343 77.4264 10.7106 77.4872C10.886 77.5454 11.0632 77.5463 11.2421 77.4902C11.393 77.4489 11.5127 77.3771 11.6011 77.2749C11.6887 77.1701 11.7528 77.0443 11.7933 76.8976C11.8311 76.7518 11.8531 76.5901 11.8593 76.4126C11.8627 76.2359 11.8544 76.051 11.8344 75.8578L11.7631 75.0586C11.723 74.6723 11.7199 74.3071 11.754 73.9631C11.788 73.619 11.8668 73.3055 11.9903 73.0227C12.1139 72.7399 12.2895 72.4958 12.5171 72.2905C12.7437 72.0824 13.0301 71.9227 13.3762 71.8112C13.8867 71.654 14.372 71.6447 14.8322 71.7832C15.2888 71.9198 15.7007 72.1954 16.0681 72.6101C16.4318 73.0229 16.727 73.5658 16.9536 74.2389C17.1783 74.9067 17.2711 75.5205 17.2319 76.0806C17.1917 76.6379 17.0164 77.1186 16.7058 77.5225C16.3917 77.9247 15.9373 78.2264 15.3428 78.4278L14.7731 76.7356C15.046 76.6292 15.2524 76.4766 15.3923 76.278C15.5286 76.0775 15.6043 75.8439 15.6194 75.5772C15.6309 75.3086 15.5859 75.0236 15.4844 74.722C15.3847 74.4259 15.2547 74.1823 15.0946 73.9915C14.9335 73.7979 14.7553 73.6647 14.56 73.592C14.3647 73.5193 14.1668 73.5144 13.9662 73.5773C13.7792 73.636 13.6405 73.7405 13.5503 73.8909C13.4591 74.0385 13.4042 74.2314 13.3854 74.4694C13.3658 74.7048 13.3701 74.9847 13.3984 75.3093L13.4739 76.2813C13.5379 77.0322 13.4562 77.6665 13.2289 78.1843C13.0016 78.7021 12.5799 79.0561 11.9636 79.2464C11.4603 79.4072 10.975 79.4121 10.5076 79.261C10.0392 79.1073 9.61957 78.8266 9.24862 78.419C8.87766 78.0115 8.59067 77.5062 8.38765 76.903C8.181 76.2892 8.10635 75.7202 8.16371 75.1962C8.22016 74.6695 8.39373 74.2191 8.68442 73.8452C8.9751 73.4712 9.36712 73.2024 9.86046 73.0388L10.4247 74.7148Z" fill="black"/>
<path d="M9.84718 63.5833C10.788 63.4395 11.6175 63.4952 12.3359 63.7503C13.0538 64.0027 13.637 64.4078 14.0855 64.9657C14.5308 65.5212 14.8157 66.1789 14.9404 66.9386C15.066 67.7039 15.0046 68.4174 14.7562 69.079C14.5078 69.7405 14.0826 70.2984 13.4806 70.7525C12.8786 71.2066 12.1086 71.5054 11.1707 71.6488C10.2299 71.7926 9.40053 71.7383 8.68263 71.486C7.96472 71.2336 7.38314 70.8297 6.9379 70.2742C6.48985 69.7191 6.20303 69.0588 6.07744 68.2935C5.95278 67.5338 6.01465 66.8231 6.26305 66.1616C6.50819 65.4976 6.93175 64.9386 7.53373 64.4845C8.13525 64.0275 8.9064 63.7272 9.84718 63.5833ZM10.1501 65.4294C9.5407 65.5225 9.04174 65.6922 8.6532 65.9384C8.26421 66.1818 7.98851 66.484 7.82609 66.8451C7.66368 67.2061 7.61858 67.6067 7.6908 68.0469C7.76303 68.487 7.93417 68.8545 8.20423 69.1495C8.47429 69.4444 8.83348 69.651 9.28182 69.7693C9.7297 69.8847 10.2583 69.8959 10.8677 69.8027C11.4771 69.7096 11.9763 69.5413 12.3653 69.2979C12.7538 69.0517 13.0293 68.7481 13.1917 68.387C13.3542 68.026 13.3992 67.6254 13.327 67.1852C13.2548 66.7451 13.0837 66.3776 12.8136 66.0826C12.5435 65.7877 12.1846 65.5825 11.7367 65.467C11.2884 65.3488 10.7595 65.3362 10.1501 65.4294Z" fill="black"/>
<path d="M5.42678 64.0479V61.7723L11.2904 59.3689V59.2666L5.42678 56.8632V54.5876H14.1541V56.3774H8.47365V56.4499L14.1114 58.7084V59.9271L8.45235 62.1857V62.2581H14.1541V64.0479H5.42678Z" fill="black"/>
<path d="M10.5321 43.9667C10.1932 43.8962 9.89172 43.9549 9.62763 44.143C9.36353 44.331 9.16079 44.6351 9.0194 45.0551C8.92332 45.3405 8.88286 45.5942 8.89802 45.8163C8.91047 46.0375 8.9695 46.2227 9.07511 46.3719C9.18162 46.5184 9.32434 46.6197 9.50324 46.6758C9.65052 46.728 9.79106 46.7378 9.92486 46.7054C10.0596 46.6702 10.188 46.6048 10.3101 46.5092C10.4295 46.4127 10.5457 46.2943 10.6588 46.1542C10.7692 46.0132 10.8751 45.8588 10.9765 45.6912L11.4056 45.0042C11.6084 44.6689 11.8283 44.3718 12.0653 44.1127C12.3024 43.8537 12.557 43.6448 12.8292 43.486C13.1014 43.3273 13.3921 43.2295 13.7012 43.1925C14.0113 43.1528 14.3402 43.186 14.6881 43.2921C15.1968 43.4546 15.5952 43.7225 15.8832 44.0956C16.1693 44.4651 16.3348 44.9218 16.3794 45.4657C16.4223 46.006 16.3305 46.6127 16.1039 47.2858C15.8791 47.9536 15.5803 48.5028 15.2075 48.9336C14.8357 49.3617 14.4011 49.6511 13.9038 49.8018C13.4048 49.9489 12.8534 49.9352 12.2498 49.7608L12.8195 48.0686C13.105 48.1373 13.3649 48.131 13.5991 48.0497C13.8314 47.9648 14.0349 47.8187 14.2096 47.6116C14.3824 47.4008 14.5196 47.1447 14.6211 46.8431C14.7208 46.547 14.764 46.2762 14.7506 46.0309C14.7382 45.783 14.6751 45.5742 14.5614 45.4045C14.4477 45.2349 14.2905 45.1187 14.0899 45.0557C13.9029 44.9971 13.7271 45.003 13.5625 45.0734C13.3989 45.1412 13.237 45.266 13.0768 45.448C12.9176 45.6272 12.7506 45.8562 12.5759 46.1348L12.045 46.964C11.6395 47.6078 11.1871 48.0746 10.688 48.3646C10.1888 48.6545 9.63196 48.7017 9.01753 48.506C8.51243 48.3506 8.1168 48.0791 7.83064 47.6917C7.54539 47.3016 7.37681 46.8365 7.32489 46.2963C7.27297 45.7561 7.34853 45.1845 7.55155 44.5814C7.7582 43.9675 8.04428 43.4648 8.4098 43.0734C8.77622 42.6793 9.19088 42.4135 9.65378 42.2759C10.1167 42.1382 10.5975 42.1432 11.0963 42.2907L10.5321 43.9667Z" fill="black"/>
<path d="M16.859 34.7059C17.713 35.1259 18.3553 35.6428 18.786 36.2565C19.218 36.8677 19.4475 37.5248 19.4745 38.228C19.5002 38.9274 19.3334 39.6175 18.974 40.2984C18.6119 40.9842 18.1289 41.522 17.525 41.9117C16.9211 42.3014 16.2361 42.5073 15.4699 42.5292C14.7037 42.5511 13.8949 42.3527 13.0434 41.9339C12.1894 41.5139 11.5464 40.9983 11.1144 40.3872C10.6825 39.776 10.4536 39.1207 10.4278 38.4213C10.3995 37.7206 10.5664 37.0274 10.9284 36.3415C11.2878 35.6607 11.7695 35.1254 12.3734 34.7357C12.9761 34.3422 13.6605 34.1345 14.4267 34.1126C15.1942 34.0881 16.005 34.2859 16.859 34.7059ZM15.9857 36.3603C15.4325 36.0882 14.9229 35.9405 14.4568 35.917C13.9921 35.8909 13.584 35.9766 13.2325 36.174C12.8811 36.3714 12.6012 36.6674 12.393 37.0618C12.1848 37.4562 12.1012 37.8487 12.1424 38.2392C12.1835 38.6297 12.3509 39 12.6445 39.3501C12.9395 39.6977 13.3636 40.0075 13.9168 40.2796C14.4699 40.5516 14.9789 40.7007 15.4436 40.7267C15.9097 40.7502 16.3184 40.6632 16.6699 40.4658C17.0214 40.2684 17.3012 39.9725 17.5094 39.5781C17.7176 39.1836 17.8012 38.7912 17.7601 38.4007C17.7189 38.0102 17.5509 37.6412 17.2559 37.2936C16.9623 36.9435 16.5389 36.6324 15.9857 36.3603Z" fill="black"/>
<path d="M25.7023 22.6331L24.3594 23.9293C24.1611 23.7853 23.9567 23.6847 23.7462 23.6274C23.5336 23.5683 23.32 23.5495 23.1053 23.5712C22.8907 23.5929 22.6802 23.6541 22.4737 23.7547C22.2693 23.8533 22.0772 23.9895 21.8973 24.1631C21.5723 24.4768 21.3699 24.828 21.2902 25.2167C21.2085 25.6034 21.2544 26.0088 21.4282 26.433C21.5999 26.8552 21.9034 27.2764 22.3388 27.6967C22.7865 28.1288 23.229 28.4277 23.6664 28.5934C24.1059 28.7571 24.5239 28.7976 24.9205 28.7147C25.317 28.6319 25.6737 28.4375 25.9905 28.1317C26.1684 27.9601 26.3094 27.7786 26.4137 27.5872C26.5199 27.3938 26.5874 27.1965 26.616 26.9953C26.6426 26.7921 26.6293 26.5898 26.5762 26.3886C26.5251 26.1854 26.431 25.9881 26.2941 25.7967L27.6432 24.5064C27.8966 24.8181 28.0877 25.1703 28.2165 25.5629C28.3453 25.9516 28.3984 26.36 28.376 26.7881C28.3535 27.2123 28.2431 27.6385 28.0448 28.0666C27.8465 28.4908 27.5461 28.8972 27.1434 29.2859C26.5833 29.8265 25.9558 30.1875 25.2608 30.3691C24.5679 30.5486 23.8535 30.5299 23.1176 30.3128C22.3838 30.0938 21.6755 29.6548 20.9928 28.9959C20.308 28.3349 19.8543 27.6483 19.6315 26.9361C19.4087 26.2239 19.3923 25.5333 19.5824 24.8645C19.7705 24.1937 20.1404 23.5919 20.6923 23.0592C21.0562 22.708 21.4445 22.4318 21.8574 22.2306C22.2724 22.0274 22.6986 21.9041 23.136 21.8607C23.5714 21.8153 24.0058 21.8557 24.4391 21.982C24.8745 22.1063 25.2956 22.3233 25.7023 22.6331Z" fill="black"/>
<path d="M28.348 16.9229L29.8587 15.8635L33.2672 20.3916C33.6499 20.9001 33.8603 21.4322 33.8984 21.9881C33.9389 22.5423 33.8173 23.0818 33.5337 23.6067C33.2483 24.1294 32.8102 24.5978 32.2194 25.0122C31.6263 25.4281 31.0281 25.6863 30.425 25.7868C29.8201 25.885 29.2509 25.8298 28.7173 25.6214C28.1837 25.413 27.7256 25.0546 27.3429 24.5462L23.9344 20.018L25.4452 18.9586L28.7588 23.3608C28.9587 23.6263 29.1957 23.8208 29.4698 23.9441C29.7462 24.0659 30.0382 24.1091 30.3456 24.0738C30.6531 24.0385 30.9522 23.9189 31.243 23.715C31.5361 23.5095 31.7463 23.2718 31.8738 23.0021C32.0036 22.7308 32.0501 22.4502 32.0132 22.1605C31.9787 21.8691 31.8615 21.5907 31.6616 21.3251L28.348 16.9229Z" fill="black"/>
<path d="M31.1876 16.6421L30.4774 15.2967L36.9092 12.1335L37.6194 13.4789L35.2218 14.658L38.5858 21.0306L36.9491 21.8355L33.5852 15.4629L31.1876 16.6421Z" fill="black"/>
<path d="M41.1027 19.6434L38.3184 11.3722L43.9296 9.61238L44.415 11.0542L40.5644 12.2618L41.2278 14.2327L44.7897 13.1156L45.2751 14.5574L41.7132 15.6745L42.378 17.6494L46.2449 16.4367L46.7302 17.8785L41.1027 19.6434Z" fill="black"/>
<path d="M75.7179 76.5894L73.579 82.7275L71.6353 77.4759" stroke="black"/>
<path d="M41 75.2499V75.2499C53.6577 79.4691 67.3423 79.4691 80 75.2499V75.2499" stroke="black"/>
<path d="M59.5 53.5C59.5 57.708 58.5086 61.4931 56.9316 64.2091C55.3472 66.9377 53.2325 68.5 51 68.5C48.7675 68.5 46.6528 66.9377 45.0684 64.2091C43.4914 61.4931 42.5 57.708 42.5 53.5C42.5 49.292 43.4914 45.5069 45.0684 42.7909C46.6528 40.0623 48.7675 38.5 51 38.5C53.2325 38.5 55.3472 40.0623 56.9316 42.7909C58.5086 45.5069 59.5 49.292 59.5 53.5Z" fill="white" stroke="black"/>
<path d="M76.5 53.5C76.5 57.6985 75.4011 61.4763 73.6509 64.1891C71.8974 66.9071 69.5345 68.5 67 68.5C64.4655 68.5 62.1026 66.9071 60.3491 64.1891C58.5989 61.4763 57.5 57.6985 57.5 53.5C57.5 49.3015 58.5989 45.5237 60.3491 42.8109C62.1026 40.0929 64.4655 38.5 67 38.5C69.5345 38.5 71.8974 40.0929 73.6509 42.8109C75.4011 45.5237 76.5 49.3015 76.5 53.5Z" fill="white" stroke="black"/>
<ellipse cx="52.5" cy="55" rx="3.5" ry="4" fill="black"/>
<ellipse cx="65.5" cy="55" rx="3.5" ry="4" fill="black"/>
</svg>
