<svg width="173" height="173" viewBox="0 0 173 173" fill="none" xmlns="http://www.w3.org/2000/svg">
<path d="M85.5755 1.24177C85.9157 0.416757 87.0843 0.416758 87.4245 1.24177L104.199 41.9193C104.41 42.431 104.997 42.674 105.508 42.4614L146.133 25.5596C146.957 25.2168 147.783 26.0431 147.44 26.867L130.539 67.492C130.326 68.0031 130.569 68.5896 131.081 68.8006L171.758 85.5755C172.583 85.9157 172.583 87.0843 171.758 87.4245L131.081 104.199C130.569 104.41 130.326 104.997 130.539 105.508L147.44 146.133C147.783 146.957 146.957 147.783 146.133 147.44L105.508 130.539C104.997 130.326 104.41 130.569 104.199 131.081L87.4245 171.758C87.0843 172.583 85.9157 172.583 85.5755 171.758L68.8006 131.081C68.5896 130.569 68.0031 130.326 67.492 130.539L26.867 147.44C26.0431 147.783 25.2168 146.957 25.5596 146.133L42.4614 105.508C42.674 104.997 42.431 104.41 41.9193 104.199L1.24177 87.4245C0.416757 87.0843 0.416758 85.9157 1.24177 85.5755L41.9193 68.8006C42.431 68.5896 42.674 68.0031 42.4614 67.492L25.5596 26.867C25.2168 26.0431 26.0431 25.2168 26.867 25.5596L67.492 42.4614C68.0031 42.674 68.5896 42.431 68.8006 41.9193L85.5755 1.24177Z" fill="#F6AFC6"/>
</svg>
