<svg width="189" height="294" viewBox="0 0 189 294" fill="none" xmlns="http://www.w3.org/2000/svg">
<path d="M93.5058 1.18133C93.6347 -0.00846052 95.3654 -0.00844765 95.4942 1.18135L101.837 59.7614C101.954 60.8362 103.456 60.9874 103.784 59.9574L120.585 7.23558C120.946 6.10226 122.63 6.43414 122.535 7.61975L117.684 67.6371C117.599 68.6881 118.988 69.138 119.536 68.2367L145.567 25.3704C146.172 24.3739 147.704 25.043 147.383 26.1641L131.243 82.6837C130.969 83.6424 132.113 84.3675 132.863 83.7106L166.386 54.3503C167.231 53.6109 168.465 54.6091 167.919 55.5894L141.342 103.28C140.898 104.075 141.662 105.001 142.527 104.717L181.122 92.0478C182.131 91.7166 182.893 92.9787 182.129 93.7168L147.279 127.414C146.684 127.989 147.004 128.996 147.822 129.121L188.109 135.323C189.115 135.477 189.274 136.861 188.329 137.239L148.769 153.068C148.021 153.368 147.916 154.383 148.586 154.829L186.311 179.942C187.172 180.515 186.703 181.859 185.672 181.771L145.74 178.368C144.878 178.294 144.336 179.275 144.856 179.965L175.932 221.256C176.589 222.13 175.569 223.273 174.627 222.72L138.212 201.35C137.387 200.866 136.419 201.705 136.78 202.59L158.32 255.371C158.753 256.433 157.35 257.27 156.622 256.384L126.59 219.838C125.936 219.042 124.651 219.635 124.833 220.648L135.367 279.565C135.575 280.727 133.952 281.227 133.47 280.15L111.871 231.878C111.433 230.9 109.972 231.202 109.958 232.273L109.154 292.156C109.138 293.351 107.419 293.516 107.175 292.346L95.479 236.172C95.258 235.11 93.742 235.11 93.521 236.172L81.825 292.346C81.5814 293.516 79.8621 293.351 79.8461 292.156L79.042 232.273C79.0276 231.202 77.5669 230.9 77.1293 231.878L55.5302 280.15C55.0483 281.227 53.4254 280.727 53.633 279.565L64.1673 220.648C64.3485 219.635 63.0641 219.042 62.4103 219.838L32.3784 256.384C31.6504 257.27 30.2467 256.433 30.68 255.371L52.22 202.59C52.5814 201.705 51.6129 200.866 50.788 201.35L14.3732 222.72C13.4306 223.273 12.4108 222.13 13.0681 221.256L44.144 179.965C44.6639 179.275 44.1215 178.294 43.2601 178.368L3.32803 181.771C2.29734 181.859 1.82789 180.515 2.68897 179.942L40.4137 154.829C41.0841 154.383 40.9788 153.368 40.231 153.068L0.671297 137.239C-0.273807 136.861 -0.115443 135.477 0.890662 135.323L41.1784 129.121C41.9956 128.996 42.3158 127.989 41.7214 127.414L6.87076 93.7168C6.10737 92.9787 6.86884 91.7166 7.87776 92.0478L46.4729 104.717C47.3379 105.001 48.1015 104.075 47.6583 103.28L21.0812 55.5894C20.535 54.6091 21.7694 53.6109 22.6136 54.3503L56.137 83.7106C56.887 84.3675 58.0312 83.6424 57.7574 82.6837L41.6165 26.1641C41.2964 25.043 42.8277 24.3739 43.4328 25.3704L69.4644 68.2367C70.0117 69.138 71.4008 68.6881 71.3159 67.6371L66.4654 7.61975C66.3696 6.43414 68.0538 6.10225 68.4149 7.23557L85.2156 59.9574C85.5438 60.9874 87.0462 60.8362 87.1626 59.7614L93.5058 1.18133Z" fill="#FFF06C"/>
</svg>
