<svg width="39" height="46" viewBox="0 0 39 46" fill="none" xmlns="http://www.w3.org/2000/svg">
<path d="M0.638425 18.7366C0.638425 18.7366 10.7666 18.6366 14.9582 14.5169C19.2176 10.3305 19.3751 -8.146e-05 19.3751 -8.146e-05C19.3751 -8.146e-05 19.776 9.99668 23.7855 14.0745C27.8611 18.2195 38.0507 18.6756 38.0507 18.6756C38.0507 18.6756 27.875 19.0613 23.7243 23.283C19.6408 27.4363 18.625 46 18.625 46C18.625 46 18.7425 27.3054 14.6144 23.2456C10.5538 19.2522 0.638425 18.7366 0.638425 18.7366Z" fill="#FFF06C"/>
<path d="M0.638425 18.7366C0.638425 18.7366 10.7666 18.6366 14.9582 14.5169C19.2176 10.3305 19.3751 -8.146e-05 19.3751 -8.146e-05C19.3751 -8.146e-05 19.776 9.99668 23.7855 14.0745C27.8611 18.2195 38.0507 18.6756 38.0507 18.6756C38.0507 18.6756 27.875 19.0613 23.7243 23.283C19.6408 27.4363 18.625 46 18.625 46C18.625 46 18.7425 27.3054 14.6144 23.2456C10.5538 19.2522 0.638425 18.7366 0.638425 18.7366Z" fill="#FFF06C"/>
<path d="M0.638425 18.7366C0.638425 18.7366 10.7666 18.6366 14.9582 14.5169C19.2176 10.3305 19.3751 -8.146e-05 19.3751 -8.146e-05C19.3751 -8.146e-05 19.776 9.99668 23.7855 14.0745C27.8611 18.2195 38.0507 18.6756 38.0507 18.6756C38.0507 18.6756 27.875 19.0613 23.7243 23.283C19.6408 27.4363 18.625 46 18.625 46C18.625 46 18.7425 27.3054 14.6144 23.2456C10.5538 19.2522 0.638425 18.7366 0.638425 18.7366Z" fill="#FFF06C"/>
</svg>
